<svg id="Filled" height="512" viewBox="0 0 512 512" width="512" xmlns="http://www.w3.org/2000/svg"><path d="m432 392h48v96h-48z" fill="#f0c6a4" transform="matrix(-1 0 0 -1 912 880)"/><path d="m256 392h48v96h-48z" fill="#f0c6a4"/><path d="m480 328v64h-32v96h-160v-96h-32v-64a96 96 0 0 1 96-96h32a96 96 0 0 1 96 96z" fill="#f7b030"/><path d="m336 224h64v56h-64z" fill="#f0c6a4"/><path d="m336.77 232s-6.708 48 31.23 48a26.574 26.574 0 0 1 -24.926 16c-44.585 0-56.633-64-6.304-64z" fill="#e37e22"/><path d="m399.23 232s6.708 48-31.23 48a26.574 26.574 0 0 0 24.926 16c44.585 0 56.633-64 6.304-64z" fill="#e37e22"/><circle cx="440" cy="64" fill="#734b39" r="40"/><path d="m472 136c0-61.856-48-112-104-112s-104 50.144-104 112v24h208z" fill="#8c5237"/><path d="m456 136h-24v24a24 24 0 1 0 24-24z" fill="#f0c6a4"/><path d="m280 136a24 24 0 1 0 24 24v-24z" fill="#f0c6a4"/><path d="m448 136v32a80 80 0 0 1 -160 0v-32c25.63-1.07 104-7.85 104-48 0 0 7.22 43.7 56 48z" fill="#f7cca9"/><path d="m80 136v-24h-24a24 24 0 1 0 24 24z" fill="#f0c6a4"/><path d="m256 312v176h-224v-176a96 96 0 0 1 96-96h32a96 96 0 0 1 96 96z" fill="#dadcde"/><path d="m96 216h96v48h-96z" fill="#f0c6a4"/><path d="m256 136h-48v-80h24a24 24 0 0 1 24 24z" fill="#eba72e"/><path d="m64 440h160v48h-160z" fill="#6a7073"/><path d="m144 263.686-48 16.314v-64z" fill="#c3c6c7"/><path d="m144 263.686 48 16.314v-64z" fill="#c3c6c7"/><path d="m232 113h-24v24a24 24 0 1 0 24-24z" fill="#f0c6a4"/><rect fill="#f7cca9" height="192" rx="80" width="160" x="64" y="40"/><path d="m32 456h32v32h-32z" fill="#c3c6c7"/><path d="m224 456h32v32h-32z" fill="#c3c6c7"/><path d="m96 24a64 64 0 0 0 -64 64v48a24.006 24.006 0 0 1 24-24h8c13.255 0 24-17.909 24-40h128s32 0 32-48z" fill="#f7b030"/><circle cx="336" cy="168" r="8"/><circle cx="400" cy="168" r="8"/><circle cx="384" cy="344" r="8"/><circle cx="384" cy="392" r="8"/><circle cx="384" cy="440" r="8"/><path d="m24 312v176a8 8 0 0 0 8 8h448a8 8 0 0 0 8-8v-160a104.336 104.336 0 0 0 -58.3-93.431q-1.02-.965-2.134-1.851a88.127 88.127 0 0 0 25.158-40.886 32.483 32.483 0 0 0 3.276.168 31.975 31.975 0 0 0 24-53.132v-2.868a125.654 125.654 0 0 0 -5.913-38.216 47.542 47.542 0 0 0 13.913-33.784 48 48 0 0 0 -76.684-38.483 103.561 103.561 0 0 0 -43.316-9.517c-29.479 0-57.478 12.548-78.836 35.333a121.923 121.923 0 0 0 -25.164 40.455v-11.788a32.053 32.053 0 0 0 -13.32-25.958c3.167-7.507 5.32-17.291 5.32-30.042a8 8 0 0 0 -8-8h-152a72.081 72.081 0 0 0 -72 72v48a32.036 32.036 0 0 0 32 32c.486 0 .972-.013 1.455-.034a87.983 87.983 0 0 0 27.572 49.293 103.977 103.977 0 0 0 -61.027 94.741zm32 168h-16v-16h16zm80 0h-64v-32h64zm80 0h-64v-32h64zm-72-227.591-13.54-13.451a88.492 88.492 0 0 0 27.08 0zm104 227.591h-16v-16h16zm0-32h-16v-104a8 8 0 0 0 -16 0v88h-64v-157.145l37.426 12.72a8 8 0 0 0 10.574-7.575v-46.394a88.187 88.187 0 0 1 48 78.394zm-89.206-187.735 25.206-25.04v33.607zm121.206 219.735h-16v-80h16zm80 0h-64v-120a8 8 0 0 0 -16 0v24h-16v-56a88.3 88.3 0 0 1 32-67.86 41.69 41.69 0 0 0 .5 5.6c3.013 19.012 19.977 38.26 46.574 38.26a35.255 35.255 0 0 0 16.926-4.047zm-38.031-237.029q3.22 1.985 6.618 3.693c1.578 19.784 10.33 33.41 24.524 38.779a19.534 19.534 0 0 1 -10.037 2.557c-13.342 0-28.195-8.507-30.77-24.765-.563-3.557-1.341-14.792 9.665-20.264zm23.653 10.142a88.174 88.174 0 0 0 44.76 0c-2.848 12.544-10.344 18.887-22.382 18.887s-19.526-6.343-22.378-18.887zm61.805-6.455q3.387-1.706 6.6-3.687c11.006 5.471 10.228 16.706 9.665 20.263-2.57 16.259-17.424 24.766-30.766 24.766a19.556 19.556 0 0 1 -10.037-2.554c14.202-5.369 22.965-18.991 24.538-38.788zm64.573 233.342h-16v-80h16zm-32.5-214.264a41.5 41.5 0 0 0 .5-5.6 88.3 88.3 0 0 1 32 67.864v56h-16v-24a8 8 0 0 0 -16 0v120h-64v-180.047a35.255 35.255 0 0 0 16.926 4.047c26.598 0 43.562-19.25 46.574-38.264zm.5-97.736a72 72 0 0 1 -144 0v-24.621a295.869 295.869 0 0 0 41.676-5.557c30.164-6.463 46.372-16.737 54.626-27.482a69.33 69.33 0 0 0 4.3 6.46c7.635 10.18 21.035 21.958 43.4 25.862zm16 8c-.123 0-.243-.015-.366-.018.238-2.63.366-5.291.366-7.982v-24a16 16 0 0 1 0 32zm-16-144a32.02 32.02 0 0 1 27.242 48.815 121.834 121.834 0 0 0 -20.406-29.482 117.52 117.52 0 0 0 -19.458-16.733 31.972 31.972 0 0 1 12.622-2.6zm-139.164 30.275c18.302-19.523 42.155-30.275 67.164-30.275s48.862 10.752 67.164 30.275a106.957 106.957 0 0 1 28.608 66.684 31.971 31.971 0 0 0 -7.772-.959c-48.27 0-55.817-39.663-56.109-41.315a8 8 0 0 0 -15.891 1.315c0 19.405-26.9 29.272-49.469 34.133-26.858 5.785-54.26 5.867-54.531 5.867a31.949 31.949 0 0 0 -7.77.959 106.957 106.957 0 0 1 28.606-66.684zm-20.836 81.725v24c0 2.692.128 5.354.366 7.985-.122 0-.243.015-.366.015a16 16 0 0 1 0-32zm-31.795 19.577a31.95 31.95 0 0 0 35.075 28.25 88.124 88.124 0 0 0 25.159 40.891q-1.113.888-2.135 1.852a104.229 104.229 0 0 0 -47.042 46.475 104.253 104.253 0 0 0 -56.3-63.773 87.979 87.979 0 0 0 27.587-49.306c.483.021.969.034 1.455.034a31.8 31.8 0 0 0 16.201-4.423zm-64.205-43.577h16a16 16 0 0 1 0 32h-16a16 16 0 0 1 0-32zm-24.761-4.245a29.333 29.333 0 0 0 -15.239-3.755c-6.621 0-11.6 1.547-15.271 3.714a31.949 31.949 0 0 0 -24.729-11.714h-16c-.675 0-1.343.028-2.008.069 4.127-7.078 7.814-15.369 9.308-24.069h108.563a71.081 71.081 0 0 1 11.093 27.722 31.8 31.8 0 0 0 -14.956-3.722h-16a31.949 31.949 0 0 0 -24.761 11.755zm72.761 36.245v-32a16 16 0 0 1 0 32zm10.1-84.4a16.028 16.028 0 0 1 5.9 12.4v28.305a31.793 31.793 0 0 0 -16-4.305q-.728 0-1.451.034a86.69 86.69 0 0 0 -8.531-24.806 38.68 38.68 0 0 0 14.782-6.828 39.517 39.517 0 0 0 5.3-4.8zm-186.1 84.4a16 16 0 0 1 0-32zm9.8-46.462a31.927 31.927 0 0 0 -25.8 2.767v-20.305a56.064 56.064 0 0 1 56-56h143.652c-2.775 30.355-21.3 31.926-23.723 32h-127.929a8 8 0 0 0 -8 8c0 8.158-3.627 17.948-10.489 28.311-1.254 1.889-2.511 3.641-3.711 5.227zm22.2 14.462h16a16 16 0 0 1 0 32h-16a16 16 0 0 1 0-32zm-14.929 44.292a31.8 31.8 0 0 0 14.929 3.708h16a31.971 31.971 0 0 0 31.542-37.363c.465-.917 2.822-2.637 8.458-2.637 6.326 0 8.111 2.168 8.449 2.689a31.972 31.972 0 0 0 31.551 37.311h16a31.8 31.8 0 0 0 14.929-3.708 71.983 71.983 0 0 1 -141.858 0zm56.135 95.973-25.206 8.567v-33.607zm-41.206-26.681v46.416a8 8 0 0 0 10.574 7.575l37.426-12.72v157.145h-64v-88a8 8 0 0 0 -16 0v104h-16v-136a87.986 87.986 0 0 1 48-78.416z"/><circle cx="96" cy="136" r="8"/><circle cx="192" cy="136" r="8"/><path d="m144 200c18.772 0 28.6-9.285 29.657-10.343a8 8 0 0 0 -11.314-11.314c-.057.057-6.2 5.657-18.343 5.657s-18.286-5.6-18.343-5.657a8 8 0 0 0 -11.314 11.314c1.057 1.058 10.886 10.343 29.657 10.343z"/><path d="m386.343 194.343c-.057.057-6.2 5.657-18.343 5.657s-18.286-5.6-18.343-5.657a8 8 0 0 0 -11.314 11.314c1.057 1.058 10.886 10.343 29.657 10.343 18.772 0 28.6-9.285 29.657-10.343a8 8 0 0 0 -11.314-11.314z"/></svg>