<svg id="Filled" height="512" viewBox="0 0 512 512" width="512" xmlns="http://www.w3.org/2000/svg"><path d="m104 312h256a32 32 0 0 1 32 32v144a0 0 0 0 1 0 0h-320a0 0 0 0 1 0 0v-144a32 32 0 0 1 32-32z" fill="#6a7073"/><path d="m200 488-64-119 40-57h40v48z" fill="#e9eef2"/><path d="m264 488 64-119-40-57h-40v48z" fill="#e9eef2"/><path d="m344 312h-224l-16-48h256z" fill="#596063"/><ellipse cx="128" cy="200.5" fill="#f0c6a4" rx="32" ry="32.5"/><ellipse cx="336" cy="200.5" fill="#f0c6a4" rx="32" ry="32.5"/><path d="m336 191v16c0 .33 0 .67-.01 1a103.995 103.995 0 0 1 -207.98 0c-.01-.33-.01-.67-.01-1v-16a104 104 0 1 1 208 0z" fill="#f7cca9"/><path d="m336 136h-208l16-112s65.639 10.143 88 10.143 88-10.143 88-10.143z" fill="#6a7073"/><path d="m368 168h-272l32-32h208z" fill="#4f5659"/><path d="m264 488h-64l16-128h32z" fill="#6a7073"/><path d="m216 312h32v48h-32z" fill="#4f5659"/><path d="m240 312-64 48v-48z" fill="#dadcde"/><path d="m224 312 64 48v-48z" fill="#dadcde"/><path d="m392 384a8 8 0 0 1 -8-8v-32a8 8 0 0 1 16 0v32a8 8 0 0 1 -8 8z" fill="#9aa3a8"/><path d="m376 376h32a0 0 0 0 1 0 0v96a16 16 0 0 1 -16 16 16 16 0 0 1 -16-16v-96a0 0 0 0 1 0 0z" fill="#4f5659"/><path d="m376 424h32a16 16 0 0 1 16 16v32a16 16 0 0 1 -16 16h-32a0 0 0 0 1 0 0v-64a0 0 0 0 1 0 0z" fill="#f7cca9"/><circle cx="192" cy="200" fill="#6a7073" r="24"/><circle cx="272" cy="200" fill="#6a7073" r="24"/><path d="m392 240a56 56 0 1 0 56 56 56.062 56.062 0 0 0 -56-56zm0 96a40 40 0 1 1 40-40 40.04 40.04 0 0 1 -40 40z" fill="#4f5659"/><circle cx="392" cy="296" fill="#e9eef2" r="40"/><path d="m448 296a55.962 55.962 0 0 0 -95.138-40h-20.162a111.282 111.282 0 0 0 6.378-16.13 39.966 39.966 0 0 0 28.9-63.87h.022a8 8 0 0 0 5.657-13.657l-30.115-30.115-15.623-109.36a8 8 0 0 0 -9.141-6.774c-.65.1-65.286 10.05-86.778 10.05s-86.128-9.95-86.778-10.05a8 8 0 0 0 -9.141 6.774l-15.623 109.36-30.115 30.115a8 8 0 0 0 5.657 13.657h.023a39.966 39.966 0 0 0 28.9 63.87 111.282 111.282 0 0 0 6.377 16.13h-27.3a8 8 0 0 0 -7.589 10.53l12.489 37.47h-4.9a40.045 40.045 0 0 0 -40 40v144a8 8 0 0 0 8 8h336a24.028 24.028 0 0 0 24-24v-32a24.039 24.039 0 0 0 -16-22.624v-41.376a8 8 0 0 0 -8-8h-8v-16.581a56.078 56.078 0 0 0 48-55.419zm-56-40a40 40 0 1 1 -40 40 40.045 40.045 0 0 1 40-40zm-50.586 16a55.772 55.772 0 0 0 -4.833 32h-48.64a112.857 112.857 0 0 0 35.216-32zm-125.414-72a24 24 0 1 1 -24-24 24.028 24.028 0 0 1 24 24zm-63.195-8h-16.805v-16h24.022a39.841 39.841 0 0 0 -7.217 16zm0 16a40 40 0 1 0 71.173-32h16.044a39.993 39.993 0 1 0 71.178 32h16.792a95.992 95.992 0 0 1 -191.974 0zm175.195-16h-16.8a39.841 39.841 0 0 0 -7.217-16h24.017zm-32 8a24 24 0 1 1 -24-24 24.028 24.028 0 0 1 24 24zm-112 120h32l-32 24zm40 14 8-6 8 6v18h-16zm24-14h32v24zm-75.578 47.155a8 8 0 0 0 8.378-.755l27.2-20.4v13.5l-12.828 102.632-49.789-92.575 22.617-32.23v22.673a8 8 0 0 0 4.422 7.155zm50.64.845h17.876l14 112h-45.876zm32.938-8.5v-13.5l27.2 20.4a8 8 0 0 0 12.8-6.4v-22.673l22.617 32.23-49.789 92.575zm86.853-136.5a112.572 112.572 0 0 0 1.147-16v-29.624a24 24 0 0 1 -1.147 45.624zm-192.073-189.889c18.363 2.717 63.005 9.033 81.22 9.033s62.857-6.316 81.22-9.033l13.556 94.889h-189.552zm-19.467 110.889h201.374l16 16h-233.374zm-27.313 56a24.039 24.039 0 0 1 16-22.624v29.624a112.572 112.572 0 0 0 1.147 16 24.04 24.04 0 0 1 -17.147-23zm11.1 72h25.743a112.857 112.857 0 0 0 35.216 32h-50.293zm-35.1 72a24.027 24.027 0 0 1 24-24h56.613l-31.161 44.4a8 8 0 0 0 -.5 8.385l57.662 107.215h-106.614zm320 40v32h-16v-32zm16 88a8.009 8.009 0 0 1 -8 8h-24v-48h24a8.009 8.009 0 0 1 8 8zm-40-104a8 8 0 0 0 -8 8v104h-90.614l57.66-107.211a8 8 0 0 0 -.5-8.385l-31.159-44.404h38.027a56.145 56.145 0 0 0 42.586 31.419v16.581z"/><path d="m216 272h32a8 8 0 0 0 0-16h-32a8 8 0 0 0 0 16z"/></svg>