<svg id="Filled" height="512" viewBox="0 0 512 512" width="512" xmlns="http://www.w3.org/2000/svg"><path d="m160 216h192a32 32 0 0 1 32 32v160a0 0 0 0 1 0 0h-256a0 0 0 0 1 0 0v-160a32 32 0 0 1 32-32z" fill="#d13330"/><path d="m128 280h256a32 32 0 0 1 32 32v176a0 0 0 0 1 0 0h-320a0 0 0 0 1 0 0v-176a32 32 0 0 1 32-32z" fill="#2d85cc"/><path d="m416 312v176h-160v-208h128a32 32 0 0 1 32 32z" fill="#1261a0"/><path d="m208 328 48 96 48-96v-48h-96z" fill="#e9eef2"/><circle cx="360" cy="184" fill="#f0c6a4" r="32"/><circle cx="152" cy="184" fill="#f0c6a4" r="32"/><rect fill="#f7cca9" height="240" rx="104" width="208" x="152" y="40"/><path d="m232 376 8-48h32l8 48-24 48z" fill="#d13330"/><g fill="#eb423f"><path d="m240 280h32v48h-32z"/><path d="m336 280h32v208h-32z"/><path d="m144 280h32v208h-32z"/></g><path d="m256 280-48 48v-48z" fill="#dadcde"/><path d="m256 280 48 48v-48z" fill="#dadcde"/><path d="m149.856 408h34.144a0 0 0 0 1 0 0v48a0 0 0 0 1 0 0h-34.144a13.856 13.856 0 0 1 -13.856-13.856v-20.288a13.856 13.856 0 0 1 13.856-13.856z" fill="#f7cca9"/><path d="m341.856 408h34.144a0 0 0 0 1 0 0v48a0 0 0 0 1 0 0h-34.144a13.856 13.856 0 0 1 -13.856-13.856v-20.288a13.856 13.856 0 0 1 13.856-13.856z" fill="#f7cca9" transform="matrix(-1 0 0 -1 704 864)"/><path d="m358.771 168s-39.621.75-39.621-37.373c0 0-126.787 29.748-166.408 37.373 0 0-30.962-6.453-23.614-62.262 7.766-58.984 126.629-119.982 197.946-51.359 0 0 44.8 6.371 55.628 58.811 7.886 38.2-22.735 54.81-22.735 54.81z" fill="#95573a"/><circle cx="296" cy="184" r="8"/><circle cx="216" cy="184" r="8"/><path d="m248 208h16a8 8 0 0 0 0-16h-8v-8a8 8 0 0 0 -16 0v16a8 8 0 0 0 8 8z"/><path d="m299.077 208.615a8 8 0 0 0 -10.462 4.308c-.079.191-8.23 19.077-32.615 19.077-23.956 0-32.248-18.238-32.636-19.126a8 8 0 0 0 -14.749 6.2c.492 1.184 12.453 28.926 47.385 28.926s46.893-27.742 47.385-28.923a8 8 0 0 0 -4.308-10.462z"/><path d="m96 496h320a8 8 0 0 0 8-8v-176a40.067 40.067 0 0 0 -32-39.195v-24.805a39.885 39.885 0 0 0 -12.557-29.061 39.959 39.959 0 0 0 5.6-66.1c5.7-10.554 8.978-24.389 5.494-41.265-6.151-29.794-22.62-45.9-35.353-54.163a77.032 77.032 0 0 0 -24.293-10.429 113.92 113.92 0 0 0 -62.3-29.7c-21.284-3.064-44.248-.584-66.409 7.177-43.467 15.223-76.769 48.216-80.985 80.233-2.984 22.669-.065 38.206 4.938 48.824a39.957 39.957 0 0 0 6.423 65.423 39.885 39.885 0 0 0 -12.558 29.061v24.805a40.067 40.067 0 0 0 -32 39.195v176a8 8 0 0 0 8 8zm280-224h-62.369a112.786 112.786 0 0 0 43.308-47.487 24.04 24.04 0 0 1 19.061 23.487zm-200 144v32h-26.144a5.863 5.863 0 0 1 -5.856-5.856v-20.288a5.863 5.863 0 0 1 5.856-5.856zm16 40v-48a8 8 0 0 0 -8-8v-112h16v40a7.985 7.985 0 0 0 .853 3.573h-.008l47.155 94.315v54.112h-64v-16a8 8 0 0 0 8-8zm64-49.889-15.681-31.362 6.458-38.749h18.446l6.458 38.749zm-8-106.8 8-8 8 8v20.689h-16zm-11.313-11.311-20.687 20.687v-20.687zm-4.687 27.313v12.025l-3.847 23.08-10.419-20.838zm51.847 35.105-3.847-23.08v-12.025l14.266 14.267zm12.153-41.731-20.687-20.687h20.687zm-32 117.2 47.155-94.31h-.008a7.985 7.985 0 0 0 .853-3.577v-40h16v112a8 8 0 0 0 -8 8v48a8 8 0 0 0 8 8v16h-64zm72 22.113v-32h26.144a5.863 5.863 0 0 1 5.856 5.856v20.288a5.863 5.863 0 0 1 -5.856 5.856zm8 16h16v16h-16zm16-64h-16v-112h16zm-8-224a96 96 0 0 1 -192 0v-1.282c37.244-7.527 123.877-27.643 152-34.2a40.067 40.067 0 0 0 11.373 22.025c9.141 8.969 21.163 11.969 28.629 12.968zm-153.631 96h-62.369v-24a24.04 24.04 0 0 1 19.061-23.487 112.786 112.786 0 0 0 43.308 47.487zm-30.369 16v112h-16v-112zm-16 176h16v16h-16zm256-152v168h-32v-20.967a21.822 21.822 0 0 0 8-16.889v-20.288a21.822 21.822 0 0 0 -8-16.889v-116.967h8a24.027 24.027 0 0 1 24 24zm-24-128a24.034 24.034 0 0 1 -20.592 23.754 111.652 111.652 0 0 0 4.592-31.754v-3.635a54.779 54.779 0 0 0 7.6-6.592 24.093 24.093 0 0 1 8.4 18.227zm-246.94-77.219c3.4-25.854 33.016-54.125 70.41-67.221 20.43-7.155 72.43-19.471 114.058 20.583a8.125 8.125 0 0 0 4.383 2.15c1.607.244 39.46 6.513 48.956 52.514 5.643 27.335-11.659 41.459-17.138 45.17-3.4-.149-15.434-1.223-23.222-8.928-4.95-4.9-7.357-11.579-7.357-20.424a8 8 0 0 0 -9.827-7.788c-1.245.292-122.983 28.837-164.1 36.918-4.923-2.005-21.569-11.916-16.163-52.974zm-1.66 59.913a38.673 38.673 0 0 0 8.6 6.34v2.966a111.652 111.652 0 0 0 4.592 31.754 23.981 23.981 0 0 1 -13.2-41.06zm-31.4 145.306a24.027 24.027 0 0 1 24-24h8v116.967a21.822 21.822 0 0 0 -8 16.889v20.288a21.822 21.822 0 0 0 8 16.889v20.967h-32z"/></svg>